<svg version="1.0" xmlns="http://www.w3.org/2000/svg"
 width="104.000000pt" height="73.000000pt" viewBox="0 0 104.000000 73.000000"
 preserveAspectRatio="xMidYMid meet">
<metadata>
Created by potrace 1.10, written by Peter Selinger 2001-2011
</metadata>
<g transform="translate(0.000000,73.000000) scale(0.100000,-0.100000)"
fill="#000000" stroke="none">
<path d="M420 711 c-133 -30 -306 -167 -370 -291 -46 -90 -55 -132 -37 -166
32 -60 122 -135 212 -179 70 -34 175 -69 175 -58 0 3 6 1 13 -3 13 -10 28 -10
139 0 91 8 238 62 238 87 0 5 5 9 10 9 14 0 33 16 93 75 91 92 154 210 142
267 -7 28 -14 40 -62 93 -27 31 -113 99 -113 90 0 -5 -8 -1 -17 7 -20 16 -111
56 -140 61 -10 1 -22 5 -28 8 -15 9 -215 8 -255 0z m256 -37 c128 -29 288
-134 328 -215 13 -27 12 -34 -18 -96 -64 -132 -189 -248 -321 -299 -78 -29
-278 -26 -360 6 -83 32 -153 75 -203 123 -66 63 -85 93 -73 114 5 10 21 44 35
77 33 74 88 136 201 224 22 18 132 66 165 73 62 12 177 9 246 -7z"/>
<path d="M410 646 c-134 -46 -254 -152 -318 -279 l-34 -66 19 -31 c23 -40 124
-124 182 -151 71 -33 96 -8 61 63 -16 31 -22 61 -21 108 0 106 38 173 122 215
97 50 227 24 296 -59 34 -41 58 -135 49 -194 -4 -32 -1 -43 15 -58 19 -17 21
-16 65 27 58 56 124 166 124 206 0 23 -11 42 -42 73 -145 146 -352 204 -518
146z m253 -25 c15 -6 27 -7 27 -4 0 4 5 2 12 -5 7 -7 20 -12 30 -12 10 0 18
-5 18 -12 0 -6 3 -9 6 -5 9 9 93 -47 147 -97 40 -37 47 -50 41 -68 -12 -40
-57 -112 -96 -153 -21 -22 -38 -43 -38 -47 0 -5 -4 -8 -9 -8 -5 0 -7 22 -4 49
3 27 1 64 -5 83 -6 18 -13 45 -16 61 -9 40 -72 104 -130 134 -99 51 -233 26
-308 -55 -72 -78 -92 -216 -45 -305 14 -26 23 -47 21 -47 -14 0 -94 44 -94 51
0 5 -6 9 -13 9 -6 0 -36 23 -65 50 -61 57 -61 60 -7 150 64 106 168 190 281
229 64 22 193 23 247 2z"/>
<path d="M652 347 c-13 -14 -22 -38 -23 -62 -2 -44 -40 -95 -69 -95 -21 0 -50
-31 -50 -52 0 -9 8 -26 18 -38 24 -30 73 -22 124 20 69 57 104 185 61 222 -32
27 -40 28 -61 5z m52 -35 c15 -48 -23 -134 -78 -174 -46 -33 -79 -34 -84 -1
-3 19 1 23 21 23 40 0 93 67 95 119 1 24 4 47 7 51 8 13 33 1 39 -18z"/>
</g>
</svg>
