<svg width="512" height="512" xmlns="http://www.w3.org/2000/svg">

 <g class="bg">
  <rect  y="-1" x="-1"/>
 </g>
 <g>

  <g class="chip">
   <path id="svg_2" fill="#C7CFE2" d="m503.172,141.241l-194.206,0c-4.875,0 -8.828,-3.953 -8.828,-8.828l0,0c0,-4.875 3.953,-8.828 8.828,-8.828l194.207,0c4.875,0 8.828,3.953 8.828,8.828l0,0c-0.001,4.876 -3.954,8.828 -8.829,8.828z"/>
   <path id="svg_3" fill="#C7CFE2" d="m203.034,141.241l-194.206,0c-4.875,0 -8.828,-3.953 -8.828,-8.828l0,0c0,-4.875 3.953,-8.828 8.828,-8.828l194.207,0c4.875,0 8.828,3.953 8.828,8.828l0,0c-0.001,4.876 -3.953,8.828 -8.829,8.828z"/>
   <path id="svg_12" fill="#C7CFE2" d="m150.069,406.069c-4.875,0 -8.828,-3.953 -8.828,-8.828c0,-78.634 14.418,-115.302 23.009,-130.155c2.272,-3.927 3.474,-8.452 3.474,-13.086l0,-24.483c0,-4.875 3.953,-8.828 8.828,-8.828s8.828,3.953 8.828,8.828l0,24.483c0,7.737 -2.022,15.319 -5.849,21.927c-6.202,10.723 -20.633,44.021 -20.633,121.314c-0.001,4.875 -3.954,8.828 -8.829,8.828z"/>
   <path id="svg_13" fill="#C7CFE2" d="m361.931,406.069c-4.875,0 -8.828,-3.953 -8.828,-8.828c0,-77.293 -14.431,-110.591 -20.638,-121.319c-3.823,-6.603 -5.845,-14.185 -5.845,-21.922l0,-24.483c0,-4.875 3.953,-8.828 8.828,-8.828s8.828,3.953 8.828,8.828l0,24.483c0,4.633 1.203,9.16 3.47,13.081c8.595,14.858 23.012,51.526 23.012,130.159c0.001,4.876 -3.952,8.829 -8.827,8.829z"/>
  </g>

  <g class="chip2">
   <path id="svg_5" fill="#959CB3" d="m105.931,105.931l0,0c-4.875,0 -8.828,3.953 -8.828,8.828l0,44.138l17.655,0l0,-44.138c0.001,-4.875 -3.952,-8.828 -8.827,-8.828z"/>
   <path id="svg_6" fill="#959CB3" d="m406.069,105.931l0,0c-4.875,0 -8.828,3.953 -8.828,8.828l0,44.138l17.655,0l0,-44.138c0.001,-4.875 -3.952,-8.828 -8.827,-8.828z"/>
   <path id="svg_26" fill="#959CB3" d="m301.793,397.241l-88.276,0c-4.875,0 -8.828,-3.953 -8.828,-8.828l0,-52.966c0,-4.875 3.953,-8.828 8.828,-8.828l88.276,0c4.875,0 8.828,3.953 8.828,8.828l0,52.966c0,4.876 -3.953,8.828 -8.828,8.828z"/>
  </g>

  <g class="chip3">
   <path id="svg_8" fill="#464655" d="m225.103,282.483l0,0c-7.313,0 -13.241,-5.929 -13.241,-13.241l0,-26.483c0,-7.313 5.929,-13.241 13.241,-13.241l0,0c7.313,0 13.241,5.929 13.241,13.241l0,26.483c0.001,7.312 -5.928,13.241 -13.241,13.241z"/>
   <path id="svg_9" fill="#464655" d="m286.897,282.483l0,0c-7.313,0 -13.241,-5.929 -13.241,-13.241l0,-26.483c0,-7.313 5.929,-13.241 13.241,-13.241l0,0c7.313,0 13.241,5.929 13.241,13.241l0,26.483c0,7.312 -5.929,13.241 -13.241,13.241z"/>
   <circle id="svg_28" fill="#464655" r="26.483" cy="360.931" cx="276.31"/>
  </g>


  <g class="chip4">
   <rect id="svg_10" fill="#5B5D6E" height="88.276" width="35.31" y="247.172" x="238.345"/>
   <rect id="svg_18" fill="#5B5D6E" height="17.655" width="52.966" y="167.724" x="79.448"/>
   <rect id="svg_20" fill="#5B5D6E" height="17.655" width="52.966" y="167.724" x="379.586"/>
  </g>

  <g class="chip5">
   <path id="svg_15" fill="#AFB9D2" d="m176.552,220.69l-8.828,0l0,8.828c0,4.875 3.953,8.828 8.828,8.828l26.483,0l0,-17.656l-26.483,0z"/>
   <path id="svg_16" fill="#AFB9D2" d="m335.448,220.69l-26.483,0l0,17.655l26.483,0c4.875,0 8.828,-3.953 8.828,-8.828l0,-8.828l-8.828,0l0,0.001z"/>
  </g>

  <g class="chip6">
   <path id="svg_17" fill="#82889D" d="m132.414,167.724l-52.966,0l6.388,-12.776c1.495,-2.99 4.552,-4.879 7.895,-4.879l24.398,0c3.343,0 6.4,1.889 7.895,4.879l6.39,12.776z"/>
   <path id="svg_19" fill="#82889D" d="m432.552,167.724l-52.966,0l6.388,-12.776c1.495,-2.99 4.552,-4.879 7.895,-4.879l24.398,0c3.343,0 6.4,1.889 7.895,4.879l6.39,12.776z"/>
  </g>
  
  <path class="chip7" fill="#E4EAF6" d="m441.379,203.034l-370.758,0c-4.875,0 -8.828,-3.953 -8.828,-8.828l0,0c0,-4.875 3.953,-8.828 8.828,-8.828l370.759,0c4.875,0 8.828,3.953 8.828,8.828l0,0c-0.001,4.876 -3.954,8.828 -8.829,8.828z"/>
  <g class="chip8">
   <path id="svg_23" fill="#D7DEED" d="m334.869,166.784l-34.951,-3.495c-29.206,-2.921 -58.632,-2.921 -87.838,0l-34.951,3.495c-6.083,0.608 -11.768,3.303 -16.09,7.625l-10.97,10.97l105.931,0l105.931,0l-10.97,-10.97c-4.324,-4.323 -10.009,-7.017 -16.092,-7.625z"/>
   <path id="svg_24" fill="#D7DEED" d="m123.586,203.034l9.899,9.899c4.967,4.967 11.702,7.756 18.727,7.756l19.926,0c8.335,0 16.184,3.925 21.186,10.593l7.945,10.593c6.668,8.892 17.134,14.124 28.248,14.124l52.966,0c11.114,0 21.58,-5.233 28.248,-14.124l7.945,-10.593c5.002,-6.668 12.851,-10.593 21.186,-10.593l19.927,0c7.023,0 13.76,-2.791 18.727,-7.756l9.898,-9.899l-264.828,0z"/>
  </g>
  
  
  <g stroke="null" class="chip9">
   <circle stroke="null" id="svg_30" fill="#ffffff" r="8.828" cy="360.931" cx="276.31"/>
   <circle stroke="null" id="svg_31" fill="#ffffff" r="8.828" cy="374.172" cx="227.759"/>
  </g>
  <path class="chip10" fill="#789178" d="m232.172,357.517l-8.828,0c-2.438,0 -4.414,-1.976 -4.414,-4.414l0,-8.828c0,-2.438 1.976,-4.414 4.414,-4.414l8.828,0c2.438,0 4.414,1.976 4.414,4.414l0,8.828c0,2.438 -1.976,4.414 -4.414,4.414z"/>
  <g class="chip11">
   <path id="svg_34" fill="#ff5656" d="m150.069,203.034l-8.828,0c-4.875,0 -8.828,-3.953 -8.828,-8.828l0,-8.828l26.483,0l0,8.828c0.001,4.876 -3.952,8.828 -8.827,8.828z"/>
   <path id="svg_35" fill="#ff5656" d="m379.586,203.034l-8.828,0c-4.875,0 -8.828,-3.953 -8.828,-8.828l0,-8.828l26.483,0l0,8.828c0.001,4.876 -3.952,8.828 -8.827,8.828z"/>
  </g>
  <g class="chip12">
   <path id="svg_37" fill="#C7CFE2" d="m229.71,166.783l11.65,-3.495c2.4,-0.721 16.639,-1.262 36.834,-1.626c-22.037,-1.109 -44.137,-0.572 -66.113,1.626l-34.951,3.495c-6.083,0.608 -11.768,3.303 -16.092,7.625l-10.97,10.972l70.621,0l3.657,-10.97c1.442,-4.324 3.336,-7.018 5.364,-7.627z"/>
   <path id="svg_38" fill="#C7CFE2" d="m237.757,241.876l-2.648,-10.593c-1.667,-6.668 -4.284,-10.593 -7.062,-10.593l-6.643,0c-2.342,0 -4.586,-2.791 -6.242,-7.757l-3.299,-9.898l-88.276,0l9.899,9.898c4.967,4.967 11.702,7.757 18.726,7.757l19.927,0c8.335,0 16.184,3.925 21.186,10.593l7.945,10.593c6.668,8.892 17.134,14.124 28.248,14.124l17.655,0c-3.705,0 -7.194,-5.233 -9.416,-14.124z"/>
  </g>
  <g id="svg_39"/>
  <g id="svg_40"/>
  <g id="svg_41"/>
  <g id="svg_42"/>
  <g id="svg_43"/>
  <g id="svg_44"/>
  <g id="svg_45"/>
  <g id="svg_46"/>
  <g id="svg_47"/>
  <g id="svg_48"/>
  <g id="svg_49"/>
  <g id="svg_50"/>
  <g id="svg_51"/>
  <g id="svg_52"/>
  <g id="svg_53"/>
  <text xml:space="preserve" text-anchor="start" font-family="Helvetica, Arial, sans-serif" font-size="40" class="text" y="68.453125" x="110.5" stroke-opacity="null" stroke-width="0" stroke="null" fill="#ffffff">Object detection</text>
 </g>
</svg>